<svg version="1.1" xmlns="http://www.w3.org/2000/svg" xmlns:xlink="http://www.w3.org/1999/xlink" width="24px" height="24px" viewBox="0,0,256,256"><g fill="#ffffff" fill-rule="nonzero" stroke="none" stroke-width="1" stroke-linecap="butt" stroke-linejoin="miter" stroke-miterlimit="10" stroke-dasharray="" stroke-dashoffset="0" font-family="none" font-weight="none" font-size="none" text-anchor="none" style="mix-blend-mode: normal"><g transform="scale(10.66667,10.66667)"><path d="M22,12c0,5.523 -4.477,10 -10,10c-5.523,0 -10,-4.477 -10,-10c0,-5.523 4.477,-10 10,-10c5.523,0 10,4.477 10,10M9.254,20.047c-0.30077,-0.43291 -0.55803,-0.89449 -0.768,-1.378c-0.404,-0.91 -0.722,-1.985 -0.935,-3.169h-3.3c0.97022,2.14005 2.78025,3.7851 5.003,4.547M9.857,18.059c0.336,0.757 0.718,1.324 1.103,1.69c0.382,0.364 0.732,0.501 1.04,0.501c0.308,0 0.658,-0.137 1.04,-0.5c0.385,-0.367 0.767,-0.934 1.103,-1.69c0.321,-0.723 0.588,-1.59 0.78,-2.56h-5.847c0.192,0.97 0.459,1.837 0.78,2.56zM8.75,12c0.00067,0.692 0.035,1.35867 0.103,2h6.294c0.068,-0.64133 0.10233,-1.308 0.103,-2c-0.00067,-0.692 -0.035,-1.35867 -0.103,-2h-6.294c-0.068,0.64133 -0.10233,1.308 -0.103,2M7.345,10h-3.608c-0.15798,0.65492 -0.23754,1.3263 -0.237,2c0,0.689 0.082,1.359 0.237,2h3.608c-0.12727,-1.3303 -0.12727,-2.6697 0,-4M9.077,8.5h5.845c-0.19,-0.97 -0.458,-1.837 -0.779,-2.56c-0.336,-0.756 -0.718,-1.323 -1.103,-1.69c-0.382,-0.363 -0.732,-0.5 -1.04,-0.5c-0.308,0 -0.658,0.137 -1.04,0.5c-0.385,0.367 -0.767,0.934 -1.103,1.69c-0.321,0.723 -0.588,1.59 -0.78,2.56M16.654,10c0.12913,1.33021 0.12913,2.66979 0,4h3.61c0.15764,-0.65496 0.23687,-1.32634 0.236,-2c0.00054,-0.6737 -0.07902,-1.34508 -0.237,-2zM19.748,8.5c-0.96999,-2.13984 -2.77962,-3.78486 -5.002,-4.547c0.287,0.408 0.543,0.873 0.768,1.378c0.404,0.91 0.722,1.985 0.935,3.169h3.3zM7.551,8.5c0.213,-1.184 0.531,-2.26 0.935,-3.169c0.225,-0.505 0.48,-0.97 0.768,-1.378c-2.22238,0.76214 -4.03201,2.40716 -5.002,4.547zM15.514,18.669c-0.225,0.505 -0.48,0.97 -0.768,1.378c2.22238,-0.76214 4.03201,-2.40716 5.002,-4.547h-3.3c-0.212,1.184 -0.53,2.26 -0.934,3.169"></path></g></g></svg>