<svg version="1.1" xmlns="http://www.w3.org/2000/svg" xmlns:xlink="http://www.w3.org/1999/xlink" width="24px" height="24px" viewBox="0,0,256,256"><g fill="#ffffff" fill-rule="nonzero" stroke="none" stroke-width="1" stroke-linecap="butt" stroke-linejoin="miter" stroke-miterlimit="10" stroke-dasharray="" stroke-dashoffset="0" font-family="none" font-weight="none" font-size="none" text-anchor="none" style="mix-blend-mode: normal"><g transform="scale(10.66667,10.66667)"><path d="M12,20.5c-4.69442,0 -8.5,-3.80558 -8.5,-8.5c0,-4.69442 3.80558,-8.5 8.5,-8.5c4.69442,0 8.5,3.80558 8.5,8.5c0,4.69442 -3.80558,8.5 -8.5,8.5M12,22c5.523,0 10,-4.477 10,-10c0,-5.523 -4.477,-10 -10,-10c-5.523,0 -10,4.477 -10,10c0,5.523 4.477,10 10,10M12,16c-0.55228,0 -1,0.44772 -1,1c0,0.55228 0.44772,1 1,1c0.55228,0 1,-0.44772 1,-1c0,-0.55228 -0.44772,-1 -1,-1M12.053,12.467c0.28707,-0.2783 0.5946,-0.53468 0.92,-0.767c0.26238,-0.18596 0.51164,-0.38977 0.746,-0.61c0.1914,-0.18314 0.34973,-0.39796 0.468,-0.635c0.126,-0.25333 0.18867,-0.54767 0.188,-0.883c0,-0.37333 -0.082,-0.72267 -0.246,-1.048c-0.158,-0.324 -0.415,-0.588 -0.771,-0.792c-0.356,-0.20333 -0.81,-0.305 -1.362,-0.305c-0.57467,0 -1.045,0.11567 -1.411,0.347c-0.3468,0.20995 -0.6216,0.52033 -0.788,0.89c-0.06,0.134 -0.10933,0.27167 -0.148,0.413c-0.111,0.414 -0.445,0.767 -0.874,0.767c-0.428,0 -0.784,-0.35 -0.71,-0.772c0.07067,-0.40667 0.19933,-0.79 0.386,-1.15c0.30133,-0.58333 0.758,-1.048 1.37,-1.394c0.614,-0.352 1.36367,-0.528 2.249,-0.528c0.93,0 1.68767,0.18133 2.273,0.544c0.59,0.35733 1.01367,0.803 1.271,1.337c0.25733,0.534 0.386,1.07 0.386,1.608c0,0.54467 -0.08467,1.01233 -0.254,1.403c-0.17,0.38467 -0.37533,0.698 -0.616,0.94c-0.23533,0.242 -0.54967,0.51433 -0.943,0.817c-0.312,0.248 -0.561,0.45967 -0.747,0.635c-0.18,0.176 -0.33033,0.385 -0.451,0.627c-0.05,0.09933 -0.08767,0.2 -0.113,0.302c-0.108,0.424 -0.422,0.787 -0.86,0.787c-0.437,0 -0.806,-0.356 -0.76,-0.79c0.06427,-0.65351 0.34474,-1.2669 0.797,-1.743"></path></g></g></svg>