<svg version="1.1" xmlns="http://www.w3.org/2000/svg" xmlns:xlink="http://www.w3.org/1999/xlink" width="24px" height="24px" viewBox="0,0,256,256"><g fill="#ffffff" fill-rule="nonzero" stroke="none" stroke-width="1" stroke-linecap="butt" stroke-linejoin="miter" stroke-miterlimit="10" stroke-dasharray="" stroke-dashoffset="0" font-family="none" font-weight="none" font-size="none" text-anchor="none" style="mix-blend-mode: normal"><g transform="scale(10.66667,10.66667)"><path d="M12,2c-5.523,0 -10,4.477 -10,10c0,5.523 4.477,10 10,10c5.523,0 10,-4.477 10,-10c0,-5.523 -4.477,-10 -10,-10M6.858,18.752c0.605,-1.868 2.722,-3.24 5.142,-3.24c2.42,0 4.537,1.372 5.142,3.24c-1.43,1.092 -3.209,1.748 -5.142,1.748c-1.933,0 -3.712,-0.656 -5.142,-1.748M18.327,17.657c-1.02,-2.165 -3.483,-3.645 -6.327,-3.645c-2.844,0 -5.307,1.48 -6.327,3.645c-1.39802,-1.55265 -2.17205,-3.5677 -2.173,-5.657c0,-4.687 3.813,-8.5 8.5,-8.5c4.687,0 8.5,3.813 8.5,8.5c-0.00095,2.0893 -0.77498,4.10435 -2.173,5.657M12,6c-1.933,0 -3.5,1.567 -3.5,3.5c0,1.933 1.567,3.5 3.5,3.5c1.933,0 3.5,-1.567 3.5,-3.5c0,-1.933 -1.567,-3.5 -3.5,-3.5M12,11.5c-1.103,0 -2,-0.897 -2,-2c0,-1.103 0.897,-2 2,-2c1.103,0 2,0.897 2,2c0,1.103 -0.897,2 -2,2"></path></g></g></svg>