<svg version="1.1" xmlns="http://www.w3.org/2000/svg" xmlns:xlink="http://www.w3.org/1999/xlink" width="342px" height="35px" viewBox="0,0,256,26.1875"><g fill="#ffffff" fill-rule="nonzero" stroke="none" stroke-width="1" stroke-linecap="butt" stroke-linejoin="miter" stroke-miterlimit="10" stroke-dasharray="" stroke-dashoffset="0" font-family="none" font-weight="none" font-size="none" text-anchor="none" style="mix-blend-mode: normal"><g transform="translate(0.18713,0.03176) scale(0.74854,0.74854)"><path d="M0,0.1c0.87744,3.43799 3.56201,6.12256 7,7h11l0.5,0.1v27.6h6.8v-27.5l0.7,-0.3h11c3.42697,-0.89672 6.10328,-3.57303 7,-7h-44zM238.6,0.1h-6.8v34.8h31.2c3.00167,-1.13466 5.24792,-3.68041 6,-6.8h-30.3v-28.1zM186.3,6.9c3.6,-1 6.6,-3.8 7.4,-6.9l-38.1,0.1v20.6h31.1v7.2h-24.4c-3.76836,0.98031 -6.93579,3.52882 -8.7,7h39.9v-21h-31.2v-7zM302.5,34.9h6.7v-14h24.6v14h6.7v-21h-38zM85.3,7h26c3.4878,-0.82504 6.22557,-3.52425 7.1,-7h-40.1c0.8576,3.44925 3.55075,6.1424 7,7M85.3,20.8h26c3.4878,-0.82504 6.22557,-3.52425 7.1,-7h-40.1c0.8576,3.44925 3.55075,6.1424 7,7M85.3,34.9h26c3.4878,-0.82504 6.22557,-3.52425 7.1,-7h-40.1c0.8576,3.44925 3.55075,6.1424 7,7M308.5,7h26c3.44925,-0.8576 6.1424,-3.55075 7,-7h-40c0.8576,3.44925 3.55075,6.1424 7,7"></path></g></g></svg>